<svg width="23" height="23" viewBox="0 0 23 23" fill="none" xmlns="http://www.w3.org/2000/svg">
<g clip-path="url(#clip0_13_808)">
<path d="M18.4057 12.3298V0.873344C18.4057 0.489929 18.0953 0.179688 17.712 0.179688C17.5625 0.179688 1.13691 0.179688 0.693657 0.179688C0.310242 0.179688 0 0.489929 0 0.873344V16.4728C0 16.8559 0.310242 17.1665 0.693657 17.1665H12.4332C12.1989 20.2652 14.6551 22.8661 17.7092 22.8661C20.6267 22.8661 23 20.4924 23 17.575C23 14.8937 20.9954 12.6717 18.4057 12.3298ZM17.7092 21.4788C15.4094 21.4788 13.5866 19.4864 13.8265 17.1665C14.0325 15.202 15.6967 13.6713 17.7092 13.6713H17.712C19.8528 13.6713 21.6127 15.4157 21.6127 17.575C21.6127 19.7275 19.8614 21.4788 17.7092 21.4788ZM1.38731 1.567H6.19343V7.63058C6.19343 8.18017 6.80584 8.51322 7.26734 8.21088L9.20302 6.94341L11.1383 8.21088C11.5988 8.51234 12.2121 8.1821 12.2121 7.63058V1.567H17.0184V12.3289C15.0344 12.5888 13.3932 13.9512 12.7315 15.7792H1.38731V1.567ZM10.8248 6.34732L9.58275 5.53381C9.35147 5.38255 9.05316 5.38308 8.82294 5.53381L7.58074 6.34732V1.567H10.8248V6.34732Z" fill="#469835"/>
<path d="M19.9423 16.8811C19.3952 16.8811 18.9917 16.8811 18.4028 16.8811V14.9353C18.4028 14.0527 17.0931 13.993 17.0183 14.8762C17.014 14.9223 17.0155 14.763 17.0155 17.575C17.0155 17.9582 17.3258 18.2686 17.7092 18.2686H19.9423C20.8623 18.2686 20.8571 16.8811 19.9423 16.8811Z" fill="#469835"/>
</g>
<defs>
<clipPath id="clip0_13_808">
<rect width="23" height="23" fill="white"/>
</clipPath>
</defs>
</svg>
