<svg width="22" height="22" viewBox="0 0 22 22" fill="none" xmlns="http://www.w3.org/2000/svg">
<path d="M19.9008 18.5992L14.9508 13.6583C15.9563 12.3772 16.5019 10.7953 16.4999 9.16667C16.4999 7.71627 16.0698 6.29844 15.264 5.09248C14.4582 3.88652 13.3129 2.94659 11.9729 2.39155C10.6329 1.83651 9.15845 1.69128 7.73593 1.97424C6.3134 2.2572 5.00672 2.95563 3.98114 3.98122C2.95555 5.0068 2.25712 6.31348 1.97416 7.736C1.6912 9.15853 1.83643 10.633 2.39147 11.973C2.94651 13.313 3.88645 14.4583 5.09241 15.2641C6.29837 16.0699 7.71619 16.5 9.16659 16.5C10.7952 16.502 12.3772 15.9564 13.6583 14.9508L18.5991 19.9008C18.6843 19.9868 18.7857 20.0549 18.8974 20.1015C19.0091 20.148 19.1289 20.172 19.2499 20.172C19.3709 20.172 19.4907 20.148 19.6025 20.1015C19.7142 20.0549 19.8155 19.9868 19.9008 19.9008C19.9867 19.8156 20.0549 19.7142 20.1014 19.6025C20.1479 19.4908 20.1719 19.371 20.1719 19.25C20.1719 19.129 20.1479 19.0092 20.1014 18.8975C20.0549 18.7858 19.9867 18.6844 19.9008 18.5992ZM3.66659 9.16667C3.66659 8.07887 3.98916 7.0155 4.59351 6.11103C5.19785 5.20656 6.05684 4.50161 7.06183 4.08533C8.06682 3.66905 9.17269 3.56013 10.2396 3.77235C11.3065 3.98456 12.2865 4.50839 13.0557 5.27758C13.8249 6.04677 14.3487 7.02677 14.5609 8.09367C14.7731 9.16056 14.6642 10.2664 14.2479 11.2714C13.8316 12.2764 13.1267 13.1354 12.2222 13.7397C11.3178 14.3441 10.2544 14.6667 9.16659 14.6667C7.7079 14.6667 6.30895 14.0872 5.2775 13.0558C4.24605 12.0243 3.66659 10.6254 3.66659 9.16667Z" fill="#469835"/>
</svg>
