<svg width="52" height="52" viewBox="0 0 52 52" fill="none" xmlns="http://www.w3.org/2000/svg">
<path d="M36.7582 39.4742C36.6997 38.7057 36.089 38.0951 35.3205 38.0364C34.4609 38.102 33.8173 38.8518 33.8827 39.7112C33.9413 40.4797 34.5519 41.0903 35.3205 41.149C36.1801 41.0836 36.8236 40.3336 36.7582 39.4742Z" fill="#469835"/>
<path d="M40.5655 38.1389C40.507 37.3705 39.8963 36.7598 39.1277 36.7012C38.2682 36.7667 37.6246 37.5166 37.69 38.376C37.7485 39.1444 38.3592 39.7551 39.1277 39.8137C39.9873 39.7483 40.6309 38.9984 40.5655 38.1389Z" fill="#469835"/>
<path d="M51.9929 14.3992V14.327C51.9732 14.2768 51.949 14.2286 51.9207 14.1827L51.8666 14.1105L51.7583 13.9932L51.6952 13.9391L51.5779 13.885H51.5328L31.9373 5.87356C31.7204 5.78582 31.4777 5.78582 31.2607 5.87356L11.7104 13.7496H11.6652L11.548 13.8038L11.4848 13.8579L11.3765 13.9752L11.3224 14.0474C11.2941 14.0933 11.27 14.1415 11.2502 14.1917V14.2639C11.2408 14.3388 11.2408 14.4145 11.2502 14.4894V21.7069H0.902185C0.403953 21.7069 0 22.1109 0 22.6091C0 23.1073 0.403953 23.5113 0.902185 23.5113V23.6286H11.142V26.714H7.63248C7.13425 26.714 6.7303 27.118 6.7303 27.6162C6.7303 28.1144 7.13425 28.5184 7.63248 28.5184H11.142V31.6039H2.82384C2.32561 31.6039 1.92165 32.0078 1.92165 32.506C1.92165 33.0043 2.32561 33.4082 2.82384 33.4082H11.142V37.1794C11.1438 37.5436 11.3645 37.871 11.7013 38.0094L31.2607 46.129C31.3585 46.1678 31.4623 46.1891 31.5674 46.1922C31.6725 46.1891 31.7764 46.1678 31.8742 46.129L51.4335 38.0094C51.7704 37.871 51.9911 37.5436 51.9929 37.1794V14.6248C52.0024 14.5499 52.0024 14.4741 51.9929 14.3992ZM31.5945 7.70499L39.0105 10.6732L22.1396 17.8095L14.4259 14.5977L31.5945 7.70499ZM30.6653 43.9548L12.9463 36.5749V33.3992H16.6904C17.1886 33.3992 17.5926 32.9953 17.5926 32.497C17.5926 31.9988 17.1886 31.5948 16.6904 31.5948H12.9463V28.5094H21.5171C22.0153 28.5094 22.4193 28.1054 22.4193 27.6072C22.4193 27.109 22.0153 26.705 21.5171 26.705H12.9463V23.6286H14.7507C15.2489 23.6286 15.6529 23.2246 15.6529 22.7264C15.6529 22.2281 15.2489 21.8242 14.7507 21.8242H12.9463V15.9419L19.839 18.7928L30.6653 23.3038V43.9548ZM31.6035 21.7791L24.4763 18.7928L41.3652 11.6295L48.7541 14.6067L37.991 19.1176L31.6035 21.7791ZM32.4967 43.9548V23.3038L37.576 21.1927L50.2066 15.9239L50.2517 36.5749L32.4967 43.9548Z" fill="#469835"/>
</svg>
