<svg width="25" height="25" viewBox="0 0 25 25" fill="none" xmlns="http://www.w3.org/2000/svg">
<g clip-path="url(#clip0_13_579)">
<path d="M6.35299 6.64832L17.3563 1.93094L12.8002 0.0592723C12.6078 -0.0197574 12.392 -0.0197574 12.1996 0.0592723L1.25671 4.55473L6.35299 6.64832Z" fill="#469835"/>
<path d="M19.4042 2.77221L8.39758 7.48821L12.5 9.17357L23.7433 4.55473L19.4042 2.77221Z" fill="#469835"/>
<path d="M11.7097 10.5577L7.25703 8.72848V12.1919C7.25703 12.6283 6.90318 12.9822 6.46674 12.9822C6.03029 12.9822 5.67644 12.6283 5.67644 12.1919V8.07915L0.547363 5.97207V19.8847C0.547363 20.2051 0.740887 20.4939 1.03735 20.6157L11.7097 25V10.5577Z" fill="#469835"/>
<path d="M13.2903 10.5577V25L23.9626 20.6157C24.2591 20.4939 24.4526 20.2051 24.4526 19.8847C24.4526 19.3529 24.4526 6.55418 24.4526 5.97207L13.2903 10.5577Z" fill="#469835"/>
</g>
<defs>
<clipPath id="clip0_13_579">
<rect width="25" height="25" fill="white"/>
</clipPath>
</defs>
</svg>
