<svg width="80" height="80" viewBox="0 0 80 80" fill="none" xmlns="http://www.w3.org/2000/svg">
<g clip-path="url(#clip0_13_468)">
<path d="M40 80C62.0914 80 80 62.0914 80 40C80 17.9086 62.0914 0 40 0C17.9086 0 0 17.9086 0 40C0 62.0914 17.9086 80 40 80Z" fill="#1FEC58"/>
<path d="M79.8187 39.9984C79.8187 50.6405 75.6875 60.6562 68.1859 68.2016C60.6889 75.7406 50.7092 79.9298 40.0812 79.9969C40.0547 79.9969 40.0266 79.9984 40 79.9969V0C40.0281 0 40.0563 0 40.0842 0.00156403C50.7108 0.0703125 60.6906 4.25781 68.1859 11.7969C75.6875 19.3422 79.8187 29.3578 79.8187 39.9984Z" fill="#10BD41"/>
<path d="M41.0095 48.959C42.776 50.7256 42.776 53.7539 41.0095 55.5205L37.3501 59.1798C35.5836 60.9464 32.5552 60.9464 30.7886 59.1798L14.7634 43.0284C12.9968 41.2618 12.9968 38.2334 14.7634 36.4669L18.4227 32.8076C20.1893 31.041 23.2177 31.041 24.9842 32.8076L41.0095 48.959Z" fill="white"/>
<path d="M55.0158 21.0726C56.7824 19.306 59.8108 19.306 61.5774 21.0726L65.2367 24.7319C67.0032 26.4984 67.0032 29.5268 65.2367 31.2934L37.4764 58.9274C35.7098 60.694 32.6815 60.694 30.9149 58.9274L27.2556 55.2681C25.489 53.5016 25.489 50.4732 27.2556 48.7066L55.0158 21.0726Z" fill="white"/>
</g>
<defs>
<clipPath id="clip0_13_468">
<rect width="80" height="80" fill="white"/>
</clipPath>
</defs>
</svg>
