<svg width="49" height="49" viewBox="0 0 49 49" fill="none" xmlns="http://www.w3.org/2000/svg">
<g clip-path="url(#clip0_8_81)">
<path d="M8.01106 19.9904C8.48465 20.4332 9.49149 20.5296 10.0528 19.8718L13.6461 15.7721C14.168 15.1767 14.1079 14.2713 13.5118 13.7499C12.9158 13.2286 12.0095 13.2885 11.4876 13.884L8.85475 16.8878L8.14906 16.2499C7.56148 15.719 6.65448 15.7642 6.12284 16.3511C5.5913 16.938 5.63663 17.8442 6.22412 18.3752L8.01106 19.9904Z" fill="#469835"/>
<path d="M25.6626 17.4386H17.3853C16.5931 17.4386 15.9508 18.0802 15.9508 18.8717C15.9508 19.6632 16.5931 20.3048 17.3853 20.3048H25.6626C26.4549 20.3048 27.0972 19.6632 27.0972 18.8717C27.0972 18.0802 26.4549 17.4386 25.6626 17.4386Z" fill="#469835"/>
<path d="M25.6626 23.3829H7.06877C6.27653 23.3829 5.63425 24.0245 5.63425 24.816C5.63425 25.6075 6.27653 26.2491 7.06877 26.2491H25.6626C26.4549 26.2491 27.0972 25.6075 27.0972 24.816C27.0972 24.0245 26.4549 23.3829 25.6626 23.3829Z" fill="#469835"/>
<path d="M8.01106 36.4186C8.48465 36.8614 9.49149 36.9578 10.0528 36.3L13.6461 32.2003C14.168 31.6049 14.1079 30.6995 13.5118 30.1781C12.9158 29.6568 12.0095 29.7167 11.4876 30.3122L8.85475 33.316L8.14906 32.6782C7.56148 32.1473 6.65438 32.1926 6.12284 32.7794C5.5913 33.3663 5.63663 34.2726 6.22412 34.8035L8.01106 36.4186Z" fill="#469835"/>
<path d="M25.6626 33.8615H17.3853C16.5931 33.8615 15.9508 34.5031 15.9508 35.2946C15.9508 36.0861 16.5931 36.7277 17.3853 36.7277H25.6626C26.4549 36.7277 27.0972 36.0861 27.0972 35.2946C27.0972 34.5031 26.4549 33.8615 25.6626 33.8615Z" fill="#469835"/>
<path d="M25.6626 39.7208H7.06877C6.27653 39.7208 5.63425 40.3624 5.63425 41.1539C5.63425 41.9454 6.27653 42.587 7.06877 42.587H25.6626C26.4549 42.587 27.0972 41.9454 27.0972 41.1539C27.0972 40.3624 26.4549 39.7208 25.6626 39.7208Z" fill="#469835"/>
<path d="M45.4764 0H18.1614C17.9015 0.00124326 17.5908 0.0524081 17.2839 0.171761C16.9937 0.116101 16.6964 0.0872192 16.3947 0.0872192C15.1641 0.0872192 14.0027 0.561474 13.1247 1.42267C12.5946 1.94254 12.2035 2.56828 11.9718 3.25284H10.4386C9.35581 3.25284 8.46908 4.09749 8.3984 5.16162H3.3395C1.51134 5.16162 0.0240173 6.64741 0.0240173 8.47375V45.688C0.0240173 47.5143 1.51134 49.0001 3.3395 49.0001H29.4501C30.9795 49.0001 32.2697 47.96 32.6508 46.5508H45.7174C47.4414 46.4463 49.008 44.8811 48.9756 43.0552V3.49556C48.9756 1.56813 47.4059 0 45.4764 0ZM11.2605 6.11893H13.1615C13.9426 6.11893 14.5801 5.49472 14.5958 4.71462C14.6153 3.74335 15.4223 2.95321 16.3947 2.95321C17.3672 2.95321 18.1742 3.74335 18.1938 4.71462C18.2095 5.49472 18.847 6.11893 19.6281 6.11893H21.5291V7.69738H11.2605V6.11893ZM29.8965 45.6879C29.8965 45.9338 29.6963 46.1339 29.4501 46.1339H3.3395C3.09333 46.1339 2.89307 45.9338 2.89307 45.6879V8.47365C2.89307 8.22778 3.09333 8.02771 3.3395 8.02771H8.39142V8.33221C8.39142 9.56256 9.39339 10.5636 10.625 10.5636H22.1646C23.3962 10.5636 24.3982 9.56265 24.3982 8.33221V8.02771H29.4501C29.6963 8.02771 29.8965 8.22778 29.8965 8.47365V45.6879ZM46.1066 43.0551C46.1066 43.3747 45.8675 43.6431 45.5504 43.6793C45.5366 43.681 45.5228 43.6827 45.5091 43.6847H32.7656V8.47365C32.7656 6.64741 31.2782 5.16152 29.4501 5.16152H24.3903C24.3108 4.09605 23.4196 3.25274 22.333 3.25274H20.8177C20.7732 3.12134 20.721 2.99281 20.6649 2.86609H45.4764C45.8239 2.86609 46.1066 3.1485 46.1066 3.49556V43.0551Z" fill="#469835"/>
</g>
<defs>
<clipPath id="clip0_8_81">
<rect width="49" height="49" fill="white"/>
</clipPath>
</defs>
</svg>
