<svg width="70" height="70" viewBox="0 0 70 70" fill="none" xmlns="http://www.w3.org/2000/svg">
<g clip-path="url(#clip0_13_969)">
<path d="M35 70C54.33 70 70 54.33 70 35C70 15.67 54.33 0 35 0C15.67 0 0 15.67 0 35C0 54.33 15.67 70 35 70Z" fill="#469835"/>
<path d="M69.8414 34.9986C69.8414 44.3104 66.2266 53.0742 59.6627 59.6764C53.1028 66.273 44.3706 69.9386 35.0711 69.9973C35.0479 69.9973 35.0232 69.9986 35 69.9973V0C35.0246 0 35.0492 7.62939e-06 35.0737 0.00137329C44.3719 0.0615311 53.1043 3.72559 59.6627 10.3223C66.2266 16.9244 69.8414 25.6881 69.8414 34.9986Z" fill="#3C852D"/>
<g clip-path="url(#clip1_13_969)">
<path d="M26.4025 25.8395L42.6874 18.8578L35.9445 16.0877C35.6596 15.9708 35.3403 15.9708 35.0555 16.0877L18.86 22.741L26.4025 25.8395Z" fill="white"/>
<path d="M45.7182 20.1029L29.4283 27.0826L35.4999 29.5769L52.14 22.741L45.7182 20.1029Z" fill="white"/>
<path d="M34.3303 31.6254L27.7404 28.9182V34.0439C27.7404 34.6899 27.2167 35.2136 26.5707 35.2136C25.9248 35.2136 25.4011 34.6899 25.4011 34.0439V27.9571L17.8101 24.8387V45.4293C17.8101 45.9036 18.0965 46.3309 18.5352 46.5112L34.3303 53V31.6254Z" fill="white"/>
<path d="M36.6696 31.6254V53L52.4647 46.5112C52.9035 46.331 53.1899 45.9036 53.1899 45.4293C53.1899 44.6423 53.1899 25.7002 53.1899 24.8387L36.6696 31.6254Z" fill="white"/>
</g>
</g>
<defs>
<clipPath id="clip0_13_969">
<rect width="70" height="70" fill="white"/>
</clipPath>
<clipPath id="clip1_13_969">
<rect width="37" height="37" fill="white" transform="translate(17 16)"/>
</clipPath>
</defs>
</svg>
