<svg width="80" height="80" viewBox="0 0 80 80" fill="none" xmlns="http://www.w3.org/2000/svg">
<g clip-path="url(#clip0_36_665)">
<path d="M40 80C62.0914 80 80 62.0914 80 40C80 17.9086 62.0914 0 40 0C17.9086 0 0 17.9086 0 40C0 62.0914 17.9086 80 40 80Z" fill="#EB474B"/>
<path d="M79.8187 39.9984C79.8187 50.6405 75.6875 60.6563 68.1859 68.2016C60.6889 75.7406 50.7092 79.9298 40.0812 79.9969C40.0547 79.9969 40.0266 79.9984 40 79.9969V7.62939e-06C40.0281 7.62939e-06 40.0563 7.62939e-06 40.0842 0.00157166C50.7108 0.0703201 60.6906 4.25782 68.1859 11.7969C75.6875 19.3422 79.8187 29.3578 79.8187 39.9984Z" fill="#FB6469"/>
<path d="M48.867 40L60.8545 28.0125C61.1781 27.6891 61.4348 27.3051 61.6099 26.8824C61.785 26.4597 61.8752 26.0067 61.8752 25.5492C61.8752 25.0917 61.785 24.6387 61.6099 24.216C61.4348 23.7934 61.1781 23.4094 60.8545 23.0859L56.9139 19.1453C56.5905 18.8217 56.2065 18.5651 55.7838 18.3899C55.3612 18.2148 54.9081 18.1247 54.4506 18.1247C53.9931 18.1247 53.5401 18.2148 53.1175 18.3899C52.6948 18.5651 52.3108 18.8217 51.9874 19.1453L39.9999 31.1328L28.0124 19.1453C27.6889 18.8217 27.3049 18.5651 26.8823 18.3899C26.4596 18.2148 26.0066 18.1247 25.5491 18.1247C25.0916 18.1247 24.6385 18.2148 24.2159 18.3899C23.7932 18.5651 23.4092 18.8217 23.0858 19.1453L19.1452 23.0859C18.8216 23.4094 18.5649 23.7934 18.3898 24.216C18.2147 24.6387 18.1245 25.0917 18.1245 25.5492C18.1245 26.0067 18.2147 26.4597 18.3898 26.8824C18.5649 27.3051 18.8216 27.6891 19.1452 28.0125L31.1327 40L19.1452 51.9875C18.8216 52.3109 18.5649 52.6949 18.3898 53.1176C18.2147 53.5403 18.1245 53.9933 18.1245 54.4508C18.1245 54.9083 18.2147 55.3613 18.3898 55.784C18.5649 56.2066 18.8216 56.5906 19.1452 56.9141L23.0858 60.8547C23.4092 61.1783 23.7932 61.435 24.2159 61.6101C24.6385 61.7852 25.0916 61.8753 25.5491 61.8753C26.0066 61.8753 26.4596 61.7852 26.8823 61.6101C27.3049 61.435 27.6889 61.1783 28.0124 60.8547L39.9999 48.8672L51.9874 60.8547C52.3108 61.1783 52.6948 61.435 53.1175 61.6101C53.5401 61.7852 53.9931 61.8753 54.4506 61.8753C54.9081 61.8753 55.3612 61.7852 55.7838 61.6101C56.2065 61.435 56.5905 61.1783 56.9139 60.8547L60.8545 56.9141C61.1781 56.5906 61.4348 56.2066 61.6099 55.784C61.785 55.3613 61.8752 54.9083 61.8752 54.4508C61.8752 53.9933 61.785 53.5403 61.6099 53.1176C61.4348 52.6949 61.1781 52.3109 60.8545 51.9875L48.867 40Z" fill="white"/>
</g>
<defs>
<clipPath id="clip0_36_665">
<rect width="80" height="80" fill="white"/>
</clipPath>
</defs>
</svg>
