<svg width="23" height="23" viewBox="0 0 23 23" fill="none" xmlns="http://www.w3.org/2000/svg">
<g clip-path="url(#clip0_13_961)">
<path d="M22.3262 13.5215H14.7554C13.0547 11.8565 11.0914 12.2227 10.7812 12.1738V11.3272C11.6979 10.6888 12.3353 9.76444 12.6245 8.74323C13.5003 8.52164 14.1504 7.72688 14.1504 6.7832C14.1504 5.90476 13.587 5.15577 12.8027 4.87762V4.7168C12.8027 2.11596 10.6868 0 8.08594 0C5.4851 0 3.36914 2.11596 3.36914 4.7168V4.87762C2.58485 5.15577 2.02148 5.90476 2.02148 6.7832C2.02148 7.72661 2.6711 8.52114 3.54649 8.74301C3.84936 9.82091 4.52161 10.7217 5.39062 11.3294V12.1738H4.7168C2.11596 12.1738 0 14.2898 0 16.8906V22.3262C0 22.6983 0.301695 23 0.673828 23C1.04596 23 1.34766 22.6983 1.34766 22.3262V16.8906C1.34766 15.0329 2.85905 13.5215 4.7168 13.5215H5.47593C5.77588 14.6827 6.83235 15.543 8.08594 15.543C9.33953 15.543 10.396 14.6827 10.6959 13.5215C11.2638 13.5427 11.7433 13.4512 12.4623 13.6768C12.3135 13.8004 12.2187 13.9868 12.2187 14.1953V22.3262C12.2187 22.6983 12.5204 23 12.8925 23H22.3261C22.6983 23 23 22.6983 23 22.3262V14.1953C23 13.8232 22.6983 13.5215 22.3262 13.5215ZM8.08594 1.34766C9.5791 1.34766 10.8477 2.32435 11.2885 3.67214C9.23589 3.31209 6.68518 4.97065 4.7168 4.85897V4.7168C4.7168 2.85905 6.22819 1.34766 8.08594 1.34766ZM4.06628 7.45649C3.69437 7.47361 3.36914 7.16845 3.36914 6.7832C3.36914 6.43376 3.63656 6.14572 3.97752 6.1127C6.60994 6.71371 9.80236 4.3426 11.4551 5.13075V5.43555C11.4551 5.80768 11.7568 6.10938 12.1289 6.10938C12.5005 6.10938 12.8027 6.41165 12.8027 6.7832C12.8027 7.16935 12.4765 7.47356 12.1056 7.45649C11.7645 7.43947 11.4644 7.68137 11.4081 8.01851C11.1364 9.6454 9.73929 10.8262 8.08594 10.8262C6.394 10.8262 5.02541 9.59087 4.76383 8.01887C4.70763 7.6816 4.40702 7.43974 4.06628 7.45649ZM8.08594 14.1953C7.34284 14.1953 6.73828 13.5908 6.73828 12.8477V11.9794C7.60262 12.2355 8.53857 12.2428 9.43359 11.976V12.8477C9.43359 13.5908 8.82903 14.1953 8.08594 14.1953ZM16.9355 14.8691H18.2832V16.2168H16.9355V14.8691ZM21.6523 21.6523H13.5664V14.8691H15.5879V16.8906C15.5879 17.2628 15.8896 17.5645 16.2617 17.5645H18.957C19.3292 17.5645 19.6309 17.2628 19.6309 16.8906V14.8691H21.6523V21.6523Z" fill="#469835"/>
<path d="M3.36914 17.5645C2.99701 17.5645 2.69531 17.8661 2.69531 18.2383V22.3262C2.69531 22.6983 2.99701 23 3.36914 23C3.74127 23 4.04297 22.6983 4.04297 22.3262V18.2383C4.04297 17.8661 3.74127 17.5645 3.36914 17.5645Z" fill="#469835"/>
<path d="M10.1074 17.5645H6.06445C5.69232 17.5645 5.39062 17.8661 5.39062 18.2383C5.39062 18.6104 5.69232 18.9121 6.06445 18.9121H10.1074C10.4796 18.9121 10.7812 18.6104 10.7812 18.2383C10.7812 17.8661 10.4796 17.5645 10.1074 17.5645Z" fill="#469835"/>
<path d="M10.1074 20.2598H6.06445C5.69232 20.2598 5.39062 20.5615 5.39062 20.9336C5.39062 21.3057 5.69232 21.6074 6.06445 21.6074H10.1074C10.4796 21.6074 10.7812 21.3057 10.7812 20.9336C10.7812 20.5615 10.4796 20.2598 10.1074 20.2598Z" fill="#469835"/>
</g>
<defs>
<clipPath id="clip0_13_961">
<rect width="23" height="23" fill="white"/>
</clipPath>
</defs>
</svg>
