<svg width="43" height="43" viewBox="0 0 43 43" fill="none" xmlns="http://www.w3.org/2000/svg">
<path fill-rule="evenodd" clip-rule="evenodd" d="M40.7604 19.7083V7.16666C40.7604 5.86054 40.2408 4.60637 39.3181 3.68187C38.3936 2.75916 37.1394 2.23958 35.8333 2.23958C28.9676 2.23958 14.0323 2.23958 7.16665 2.23958C5.86052 2.23958 4.60635 2.75916 3.68185 3.68187C2.75915 4.60637 2.23956 5.86054 2.23956 7.16666V35.8333C2.23956 37.1395 2.75915 38.3936 3.68185 39.3181C4.60635 40.2408 5.86052 40.7604 7.16665 40.7604H19.7083C20.4501 40.7604 21.0521 40.1584 21.0521 39.4167C21.0521 38.6749 20.4501 38.0729 19.7083 38.0729C19.7083 38.0729 11.9181 38.0729 7.16665 38.0729C6.57181 38.0729 6.00385 37.8364 5.58281 37.4172C5.16356 36.9961 4.92706 36.4282 4.92706 35.8333V7.16666C4.92706 6.57183 5.16356 6.00387 5.58281 5.58283C6.00385 5.16358 6.57181 4.92708 7.16665 4.92708H35.8333C36.4281 4.92708 36.9961 5.16358 37.4171 5.58283C37.8364 6.00387 38.0729 6.57183 38.0729 7.16666V19.7083C38.0729 20.4501 38.6749 21.0521 39.4166 21.0521C40.1584 21.0521 40.7604 20.4501 40.7604 19.7083Z" fill="#469835"/>
<path fill-rule="evenodd" clip-rule="evenodd" d="M29.1145 3.58333C29.1145 2.84158 28.5125 2.23958 27.7708 2.23958H15.2291C14.4874 2.23958 13.8854 2.84158 13.8854 3.58333V10.75C13.8854 11.5813 14.215 12.3786 14.8045 12.9663C15.3922 13.5557 16.1895 13.8854 17.0208 13.8854H25.9791C26.8105 13.8854 27.6078 13.5557 28.1954 12.9663C28.7849 12.3786 29.1145 11.5813 29.1145 10.75C29.1145 8.13595 29.1145 3.58333 29.1145 3.58333ZM26.427 4.92708V10.75C26.427 10.8682 26.3805 10.9829 26.2963 11.0671C26.212 11.1513 26.0974 11.1979 25.9791 11.1979H17.0208C16.9025 11.1979 16.7879 11.1513 16.7037 11.0671C16.6195 10.9829 16.5729 10.8682 16.5729 10.75V4.92708H26.427Z" fill="#469835"/>
<path fill-rule="evenodd" clip-rule="evenodd" d="M30.1985 38.0729C26.1386 38.0729 22.8438 34.778 22.8438 30.7181C22.8438 28.2313 24.0818 26.0311 25.972 24.6999C26.5794 24.2735 26.7245 23.4332 26.2981 22.8276C25.8699 22.2202 25.0314 22.0751 24.4258 22.5015C21.844 24.3201 20.1562 27.3229 20.1562 30.7181C20.1562 36.2597 24.6569 40.7604 30.1985 40.7604C30.9403 40.7604 31.5423 40.1584 31.5423 39.4167C31.5423 38.6749 30.9403 38.0729 30.1985 38.0729Z" fill="#469835"/>
<path fill-rule="evenodd" clip-rule="evenodd" d="M30.6733 23.3777C34.5129 23.6231 37.5533 26.8177 37.5533 30.7181C37.5533 32.9595 36.5482 34.968 34.9644 36.3171C34.4 36.799 34.3337 37.6483 34.8139 38.2127C35.2958 38.777 36.1433 38.8433 36.7077 38.3632C38.8702 36.5195 40.2408 33.7783 40.2408 30.7181C40.2408 25.3933 36.086 21.0306 30.8435 20.6955C30.1036 20.649 29.4657 21.2115 29.4174 21.9515C29.3708 22.6915 29.9334 23.3311 30.6733 23.3777Z" fill="#469835"/>
<path fill-rule="evenodd" clip-rule="evenodd" d="M39.4167 36.4909H36.2866V33.3626C36.2866 32.6209 35.6846 32.0189 34.9429 32.0189C34.2011 32.0189 33.5991 32.6209 33.5991 33.3626V37.8346C33.5991 38.5764 34.2011 39.1784 34.9429 39.1784H39.4167C40.1584 39.1784 40.7604 38.5764 40.7604 37.8346C40.7604 37.0929 40.1584 36.4909 39.4167 36.4909Z" fill="#469835"/>
<path fill-rule="evenodd" clip-rule="evenodd" d="M21.5 24.1535H24.63V27.2835C24.63 28.0252 25.232 28.6272 25.9738 28.6272C26.7155 28.6272 27.3175 28.0252 27.3175 27.2835V22.8097C27.3175 22.068 26.7155 21.466 25.9738 21.466H21.5C20.7582 21.466 20.1562 22.068 20.1562 22.8097C20.1562 23.5515 20.7582 24.1535 21.5 24.1535Z" fill="#469835"/>
</svg>
