<svg width="23" height="23" viewBox="0 0 23 23" fill="none" xmlns="http://www.w3.org/2000/svg">
<g clip-path="url(#clip0_13_786)">
<path d="M10.2139 2.18968C9.9521 2.18968 9.72188 2.01413 9.65557 1.76095C9.46587 1.0369 8.80709 0.502686 8.02351 0.502686C7.23994 0.502686 6.58116 1.0369 6.39146 1.76095C6.32511 2.01413 6.09488 2.18968 5.83317 2.18968H4.04797V4.22051H11.9991V2.18968H10.2139Z" stroke="#469835" stroke-miterlimit="10" stroke-linecap="round" stroke-linejoin="round"/>
<path d="M12.6462 13.0981L13.6903 14.1421L15.7783 12.0541" stroke="#469835" stroke-miterlimit="10" stroke-linecap="round" stroke-linejoin="round"/>
<path d="M16.7928 10.4411C17.5988 11.2471 17.9411 12.3414 17.8192 13.3922C17.7294 14.1671 17.3873 14.9181 16.7928 15.5126C16.1983 16.1072 15.4472 16.4492 14.6723 16.5391C13.6215 16.661 12.5272 16.3187 11.7212 15.5126C10.3206 14.1121 10.3206 11.8416 11.7212 10.4411C13.1218 9.04048 15.3922 9.04048 16.7928 10.4411Z" stroke="#469835" stroke-miterlimit="10" stroke-linecap="round" stroke-linejoin="round"/>
<path d="M18.7508 16.171L17.4508 17.4715L16.0582 16.0789C16.3206 15.9266 16.5676 15.7375 16.7927 15.5129C17.0178 15.2878 17.2064 15.0407 17.3587 14.778L18.7508 16.171Z" stroke="#469835" stroke-miterlimit="10" stroke-linecap="round" stroke-linejoin="round"/>
<path d="M18.7743 16.1474L17.4275 17.4942L17.8027 18.1549C18.0172 18.5327 18.2816 18.8799 18.5888 19.187L20.2834 20.8817C20.8021 21.4004 21.643 21.4004 22.1618 20.8817C22.6805 20.363 22.6805 19.522 22.1618 19.0033L20.4671 17.3087C20.16 17.0015 19.8128 16.7371 19.435 16.5226L18.7743 16.1474Z" stroke="#469835" stroke-miterlimit="10" stroke-linecap="round" stroke-linejoin="round"/>
<path d="M4.97559 4.22049V5.11295C4.97559 5.68849 5.44214 6.15505 6.01768 6.15505H10.0294C10.6049 6.15505 11.0715 5.68849 11.0715 5.11295V4.22049H4.97559Z" stroke="#469835" stroke-miterlimit="10" stroke-linecap="round" stroke-linejoin="round"/>
<path d="M11.7211 10.441C10.3204 11.8416 10.3204 14.1121 11.7211 15.5127C12.2539 16.0456 12.9133 16.376 13.6027 16.5029C13.9554 16.5686 14.3166 16.5803 14.6725 16.5391C14.9876 16.5029 15.2992 16.4242 15.5979 16.304V21.2054C15.5979 21.9189 15.0194 22.4973 14.3059 22.4973H1.74162C1.02813 22.4973 0.449219 21.9189 0.449219 21.2054V3.48177C0.449219 2.76828 1.02813 2.18982 1.74162 2.18982H4.04836V4.22074H11.9991V2.18982H14.3059C15.0194 2.18982 15.5978 2.76828 15.5978 3.48177V9.64968C14.9626 9.39399 14.2688 9.32737 13.6027 9.45032C12.9133 9.57727 12.2539 9.90762 11.7211 10.441Z" stroke="#469835" stroke-miterlimit="10" stroke-linecap="round" stroke-linejoin="round"/>
<path d="M2.40686 15.0274V20.5876H13.6027V16.5029C12.9134 16.376 12.254 16.0456 11.7211 15.5127C10.3204 14.1121 10.3204 11.8415 11.7211 10.441C12.2539 9.90765 12.9133 9.57725 13.6027 9.4503V4.22028H2.40686V11.0939" stroke="#469835" stroke-miterlimit="10" stroke-linecap="round" stroke-linejoin="round"/>
<path d="M6.35196 16.3063H4.36206V18.3856H6.35196V16.3063Z" stroke="#469835" stroke-miterlimit="10" stroke-linecap="round" stroke-linejoin="round"/>
<path d="M6.35196 12.1848H4.36206V14.2641H6.35196V12.1848Z" stroke="#469835" stroke-miterlimit="10" stroke-linecap="round" stroke-linejoin="round"/>
<path d="M6.35196 8.06317H4.36206V10.1425H6.35196V8.06317Z" stroke="#469835" stroke-miterlimit="10" stroke-linecap="round" stroke-linejoin="round"/>
<path d="M8.14697 17.3459H11.1677" stroke="#469835" stroke-miterlimit="10" stroke-linecap="round" stroke-linejoin="round"/>
<path d="M8.14697 13.2244H9.00085" stroke="#469835" stroke-miterlimit="10" stroke-linecap="round" stroke-linejoin="round"/>
<path d="M8.14697 9.10284H10.6759" stroke="#469835" stroke-miterlimit="10" stroke-linecap="round" stroke-linejoin="round"/>
</g>
<defs>
<clipPath id="clip0_13_786">
<rect width="23" height="23" fill="white"/>
</clipPath>
</defs>
</svg>
