<svg width="38" height="38" viewBox="0 0 38 38" fill="none" xmlns="http://www.w3.org/2000/svg">
<path d="M19.3355 24.458C19.0029 24.7923 18.8165 25.2449 18.8172 25.7165C18.8178 26.1881 19.0054 26.6401 19.3389 26.9736C19.6723 27.3071 20.1244 27.4947 20.596 27.4953C21.0676 27.496 21.5202 27.3096 21.8545 26.977L28.5721 20.2595C28.9061 19.9254 29.0938 19.4724 29.0938 19C29.0938 18.5275 28.9061 18.0745 28.5721 17.7404L21.8545 11.023C21.5205 10.6889 21.0674 10.5013 20.595 10.5013C20.1226 10.5013 19.6695 10.6889 19.3355 11.023C19.0014 11.357 18.8138 11.8101 18.8138 12.2825C18.8138 12.7549 19.0014 13.208 19.3355 13.542L23.0122 17.2187H3.5625C3.09008 17.2187 2.63702 17.4064 2.30297 17.7405C1.96892 18.0745 1.78125 18.5276 1.78125 19C1.78125 19.4724 1.96892 19.9255 2.30297 20.2595C2.63702 20.5936 3.09008 20.7812 3.5625 20.7812H23.0122L19.3355 24.458Z" fill="#469835"/>
<path d="M33.25 1.78125H16.625C15.8376 1.78125 15.0825 2.09403 14.5258 2.65078C13.969 3.20753 13.6562 3.96264 13.6562 4.75V7.125C13.6563 7.59742 13.8439 8.05049 14.178 8.38453C14.512 8.71858 14.9651 8.90625 15.4375 8.90625C15.9099 8.90625 16.363 8.71858 16.697 8.38453C17.0311 8.05049 17.2188 7.59742 17.2188 7.125V5.34375H32.6562V32.6562H17.2188V30.875C17.2188 30.4026 17.0311 29.9495 16.697 29.6155C16.363 29.2814 15.9099 29.0938 15.4375 29.0938C14.9651 29.0938 14.512 29.2814 14.178 29.6155C13.8439 29.9495 13.6563 30.4026 13.6562 30.875V33.25C13.6563 34.0374 13.969 34.7925 14.5258 35.3492C15.0825 35.906 15.8376 36.2188 16.625 36.2188H33.25C34.0374 36.2188 34.7925 35.906 35.3492 35.3492C35.906 34.7925 36.2188 34.0374 36.2188 33.25V4.75C36.2188 3.96264 35.906 3.20753 35.3492 2.65078C34.7925 2.09403 34.0374 1.78125 33.25 1.78125Z" fill="#469835"/>
</svg>
