<svg width="176" height="135" viewBox="0 0 176 135" fill="none" xmlns="http://www.w3.org/2000/svg">
<g clip-path="url(#clip0_7_842)">
<path fill-rule="evenodd" clip-rule="evenodd" d="M98.8487 94.2656L98.8254 95.4844L99.7799 95.9531L100.013 95.2969L99.6868 94.4766L98.8487 94.2656Z" fill="#EF3842"/>
<mask id="mask0_7_842" style="mask-type:luminance" maskUnits="userSpaceOnUse" x="0" y="0" width="176" height="135">
<path d="M176 0H0V135H176V0Z" fill="white"/>
</mask>
<g mask="url(#mask0_7_842)">
<path fill-rule="evenodd" clip-rule="evenodd" d="M89.8392 106.266L89.8624 108.281L91.2826 108.609L91.9344 108.234L92.8656 107.977C92.8656 107.977 94.1926 107.906 94.4952 108.305C94.7979 108.703 95.1238 109.406 94.891 110.016C94.6582 110.602 93.7503 110.977 93.7503 110.977L92.8191 111L91.8878 111.023L91.7947 109.852L90.0021 110.109L89.0709 113.836L89.8624 115.477L88.6984 115.969L88.8148 117.562L90.491 116.836L91.2127 113.039C91.2127 113.039 94.6117 112.805 95.473 112.687C96.3344 112.547 97.2191 111.891 97.3122 111.305C97.4053 110.719 97.5217 108.633 97.1958 107.93C96.8699 107.227 96.3111 106.875 96.3111 106.875L95.1238 106.312L93.9132 106.219L92.1672 106.242L89.8392 106.266Z" fill="#DA1F26"/>
</g>
<mask id="mask1_7_842" style="mask-type:luminance" maskUnits="userSpaceOnUse" x="0" y="0" width="176" height="135">
<path d="M176 0H0V135H176V0Z" fill="white"/>
</mask>
<g mask="url(#mask1_7_842)">
<path fill-rule="evenodd" clip-rule="evenodd" d="M90.9799 119.32L90.1884 119.672L91.4222 120.023L91.6783 118.828L90.9799 119.32Z" fill="#DA1F26"/>
</g>
<mask id="mask2_7_842" style="mask-type:luminance" maskUnits="userSpaceOnUse" x="0" y="0" width="176" height="135">
<path d="M176 0H0V135H176V0Z" fill="white"/>
</mask>
<g mask="url(#mask2_7_842)">
<path fill-rule="evenodd" clip-rule="evenodd" d="M87.5809 118.664L86.7428 119.133L86.0444 118.922L86.091 117.727L87.5809 118.664Z" fill="#DA1F26"/>
</g>
<mask id="mask3_7_842" style="mask-type:luminance" maskUnits="userSpaceOnUse" x="0" y="0" width="176" height="135">
<path d="M176 0H0V135H176V0Z" fill="white"/>
</mask>
<g mask="url(#mask3_7_842)">
<path fill-rule="evenodd" clip-rule="evenodd" d="M92.1439 118.102H92.8191L92.6095 117.047L91.818 117.281L92.1439 118.102Z" fill="#DA1F26"/>
</g>
<mask id="mask4_7_842" style="mask-type:luminance" maskUnits="userSpaceOnUse" x="0" y="0" width="176" height="135">
<path d="M176 0H0V135H176V0Z" fill="white"/>
</mask>
<g mask="url(#mask4_7_842)">
<path fill-rule="evenodd" clip-rule="evenodd" d="M98.5926 112.406L101.247 112.359C102.061 112.383 102.108 113.18 102.061 113.742C102.015 114.68 101.992 115.617 102.038 116.555L104.785 116.508C104.413 115.945 104.506 114.703 104.506 114.047C104.529 112.594 104.692 111.539 102.806 111.375V111.352C104.296 111.047 105.414 110.156 105.623 108.797C105.972 106.688 104.017 106.125 102.015 106.148L97.0561 106.219L95.3799 116.648L97.8709 116.602L98.5926 112.406ZM99.3143 107.93L101.41 107.906C102.504 107.906 103.086 108.281 102.946 109.195C102.806 110.109 102.085 110.625 100.967 110.648L98.8719 110.672L99.3143 107.93Z" fill="#DA1F26"/>
</g>
<mask id="mask5_7_842" style="mask-type:luminance" maskUnits="userSpaceOnUse" x="0" y="0" width="176" height="135">
<path d="M176 0H0V135H176V0Z" fill="white"/>
</mask>
<g mask="url(#mask5_7_842)">
<path fill-rule="evenodd" clip-rule="evenodd" d="M103.621 119.063L104.11 116.859L105.158 116.766L104.669 114.469L104.576 114.867L105.926 108.727L113.725 108.961L113.352 110.695L108.044 110.531L107.509 112.945L112.468 113.109L112.095 114.82L107.136 114.656L106.508 117.422L112.002 117.609L111.606 119.32L103.621 119.063Z" fill="#DA1F26"/>
</g>
<mask id="mask6_7_842" style="mask-type:luminance" maskUnits="userSpaceOnUse" x="0" y="0" width="176" height="135">
<path d="M176 0H0V135H176V0Z" fill="white"/>
</mask>
<g mask="url(#mask6_7_842)">
<path fill-rule="evenodd" clip-rule="evenodd" d="M123.014 109.219C123.316 106.594 121.384 105.656 118.707 105.703C115.331 105.75 113.445 108.164 112.933 111.211C112.444 114.258 113.585 116.625 116.938 116.578C119.615 116.531 121.873 115.523 122.408 112.898L119.754 112.945C119.592 114.047 118.707 114.938 117.217 114.961C115.448 114.984 115.378 112.641 115.611 111.188C115.843 109.734 116.681 107.367 118.451 107.344C119.941 107.32 120.546 108.187 120.36 109.289L123.014 109.219Z" fill="#DA1F26"/>
</g>
<mask id="mask7_7_842" style="mask-type:luminance" maskUnits="userSpaceOnUse" x="0" y="0" width="176" height="135">
<path d="M176 0H0V135H176V0Z" fill="white"/>
</mask>
<g mask="url(#mask7_7_842)">
<path fill-rule="evenodd" clip-rule="evenodd" d="M127.577 105.773L125.086 105.797L123.386 116.227L125.901 116.203L127.577 105.773Z" fill="#DA1F26"/>
</g>
<mask id="mask8_7_842" style="mask-type:luminance" maskUnits="userSpaceOnUse" x="0" y="0" width="176" height="135">
<path d="M176 0H0V135H176V0Z" fill="white"/>
</mask>
<g mask="url(#mask8_7_842)">
<path fill-rule="evenodd" clip-rule="evenodd" d="M133.467 107.063C135.934 107.016 136.074 109.031 135.795 110.836C135.515 112.641 134.724 114.656 132.256 114.703C129.788 114.75 129.649 112.734 129.928 110.93C130.207 109.148 130.999 107.109 133.467 107.063ZM131.977 116.32C135.841 116.25 137.96 113.883 138.449 110.789C138.938 107.719 137.587 105.375 133.723 105.445C129.858 105.516 127.74 107.883 127.251 110.977C126.762 114.047 128.112 116.391 131.977 116.32Z" fill="#DA1F26"/>
</g>
<mask id="mask9_7_842" style="mask-type:luminance" maskUnits="userSpaceOnUse" x="0" y="0" width="176" height="135">
<path d="M176 0H0V135H176V0Z" fill="white"/>
</mask>
<g mask="url(#mask9_7_842)">
<path fill-rule="evenodd" clip-rule="evenodd" d="M148.064 108.422C148.413 106.336 146.83 105.258 144.571 105.281C142.174 105.328 139.566 106.406 139.17 108.797C138.868 110.648 140.986 111.281 142.569 111.609C143.524 111.82 145.177 111.891 144.99 113.109C144.804 114.211 143.454 114.516 142.453 114.539C141.149 114.563 140.521 113.789 140.823 112.641L138.286 112.688C137.774 115.313 139.52 116.203 142.174 116.18C144.665 116.133 147.342 115.195 147.761 112.617C148.11 110.531 145.549 110.109 143.85 109.734C142.895 109.523 141.778 109.43 141.964 108.281C142.104 107.367 143.105 106.922 144.036 106.898C145.247 106.875 145.782 107.391 145.712 108.445L148.064 108.422Z" fill="#DA1F26"/>
</g>
<mask id="mask10_7_842" style="mask-type:luminance" maskUnits="userSpaceOnUse" x="0" y="0" width="176" height="135">
<path d="M176 0H0V135H176V0Z" fill="white"/>
</mask>
<g mask="url(#mask10_7_842)">
<path fill-rule="evenodd" clip-rule="evenodd" d="M150.974 115.805L151.276 113.883L149.228 113.906L148.925 115.828L150.974 115.805ZM152.673 105.375L150.508 105.398L149.577 112.992L151.23 112.969L152.673 105.375Z" fill="#DA1F26"/>
</g>
<mask id="mask11_7_842" style="mask-type:luminance" maskUnits="userSpaceOnUse" x="0" y="0" width="176" height="135">
<path d="M176 0H0V135H176V0Z" fill="white"/>
</mask>
<g mask="url(#mask11_7_842)">
<path fill-rule="evenodd" clip-rule="evenodd" d="M25.5619 116.508L32.4529 116.414L32.709 114.914L27.9598 114.984L28.3788 112.57L32.6624 112.5L32.9185 111L28.6349 111.07L29.0074 108.961L33.5936 108.891L33.8497 107.391L27.0984 107.508L25.5619 116.508Z" fill="#111416"/>
</g>
<mask id="mask12_7_842" style="mask-type:luminance" maskUnits="userSpaceOnUse" x="0" y="0" width="176" height="135">
<path d="M176 0H0V135H176V0Z" fill="white"/>
</mask>
<g mask="url(#mask12_7_842)">
<path fill-rule="evenodd" clip-rule="evenodd" d="M39.7397 116.297L39.9958 114.797L35.6424 114.867L36.9461 107.344L34.781 107.367L33.2212 116.391L39.7397 116.297Z" fill="#111416"/>
</g>
<mask id="mask13_7_842" style="mask-type:luminance" maskUnits="userSpaceOnUse" x="0" y="0" width="176" height="135">
<path d="M176 0H0V135H176V0Z" fill="white"/>
</mask>
<g mask="url(#mask13_7_842)">
<path fill-rule="evenodd" clip-rule="evenodd" d="M45.5365 112.57L47.818 112.547C48.5164 112.57 48.5397 113.25 48.5164 113.742C48.4699 114.562 48.4233 115.359 48.4699 116.156L50.8445 116.109C50.5185 115.617 50.6349 114.562 50.6349 113.977C50.6815 112.734 50.8212 111.82 49.1916 111.68V111.656C50.472 111.398 51.4498 110.625 51.6593 109.453C51.9852 107.625 50.2857 107.156 48.563 107.156L44.2794 107.227L42.7196 116.25L44.8847 116.227L45.5365 112.57ZM46.1884 108.703L48.0043 108.68C48.9588 108.68 49.4476 109.008 49.308 109.805C49.1683 110.602 48.5397 111.023 47.5852 111.047L45.7693 111.07L46.1884 108.703Z" fill="#111416"/>
</g>
<mask id="mask14_7_842" style="mask-type:luminance" maskUnits="userSpaceOnUse" x="0" y="0" width="176" height="135">
<path d="M176 0H0V135H176V0Z" fill="white"/>
</mask>
<g mask="url(#mask14_7_842)">
<path fill-rule="evenodd" clip-rule="evenodd" d="M56.9672 108.234C59.109 108.211 59.2021 109.945 58.9228 111.492C58.6667 113.039 57.945 114.797 55.8265 114.82C53.6847 114.844 53.5915 113.109 53.8476 111.563C54.127 110.039 54.8487 108.281 56.9672 108.234ZM55.5937 116.227C58.9228 116.18 60.7852 114.117 61.2275 111.469C61.6931 108.82 60.5291 106.805 57.2 106.852C53.8709 106.898 52.0085 108.961 51.5661 111.609C51.1238 114.281 52.2646 116.273 55.5937 116.227Z" fill="#111416"/>
</g>
<mask id="mask15_7_842" style="mask-type:luminance" maskUnits="userSpaceOnUse" x="0" y="0" width="176" height="135">
<path d="M176 0H0V135H176V0Z" fill="white"/>
</mask>
<g mask="url(#mask15_7_842)">
<path fill-rule="evenodd" clip-rule="evenodd" d="M71.5408 108.07L71.564 108.117L70.2371 115.828L72.2625 115.781L73.8222 106.781L70.4 106.828L66.9778 113.414H66.9545L65.9767 106.898L62.4381 106.945L60.9016 115.969L62.9037 115.922L64.254 108.211L64.2773 108.187L65.6043 115.898L67.3968 115.875L71.5408 108.07Z" fill="#111416"/>
</g>
<mask id="mask16_7_842" style="mask-type:luminance" maskUnits="userSpaceOnUse" x="0" y="0" width="176" height="135">
<path d="M176 0H0V135H176V0Z" fill="white"/>
</mask>
<g mask="url(#mask16_7_842)">
<path fill-rule="evenodd" clip-rule="evenodd" d="M76.5693 108.234C77.7566 108.258 79.3862 107.859 79.1069 109.453C78.8275 111.047 77.3376 110.695 76.127 110.766L76.5693 108.234ZM75.2889 115.734L75.8942 112.266L77.4772 112.242C79.7354 112.148 81.1556 111.047 81.4349 109.406C81.8307 107.133 80.0381 106.688 77.8032 106.711L74.7069 106.758L73.1471 115.758L75.2889 115.734Z" fill="#111416"/>
</g>
<mask id="mask17_7_842" style="mask-type:luminance" maskUnits="userSpaceOnUse" x="0" y="0" width="176" height="135">
<path d="M176 0H0V135H176V0Z" fill="white"/>
</mask>
<g mask="url(#mask17_7_842)">
<path fill-rule="evenodd" clip-rule="evenodd" d="M80.5503 115.664L87.4413 115.547L87.6974 114.047L82.9715 114.141L83.3905 111.727L87.6741 111.656L87.9302 110.156L83.6466 110.227L83.9958 108.117L88.582 108.047L88.8381 106.547L82.1101 106.641L80.5503 115.664Z" fill="#111416"/>
</g>
<mask id="mask18_7_842" style="mask-type:luminance" maskUnits="userSpaceOnUse" x="0" y="0" width="176" height="135">
<path d="M176 0H0V135H176V0Z" fill="white"/>
</mask>
<g mask="url(#mask18_7_842)">
<path d="M14.6666 68.039C15.8772 50.7656 32.709 36.5156 52.2412 36.2109C71.7735 35.9062 86.6264 49.6641 85.3926 66.9375C84.182 84.2109 67.3502 98.4609 47.818 98.7656C28.309 99.0937 13.4561 85.3125 14.6666 68.039ZM29.9619 67.5937C28.9143 78.7969 36.9926 87.7266 47.9809 87.5625C58.9693 87.3984 68.7238 78.1875 69.7714 66.9844C70.819 55.7812 62.7407 46.8516 51.7524 47.0156C40.764 47.2031 31.0095 56.4141 29.9619 67.5937Z" fill="#DA1F26"/>
</g>
<mask id="mask19_7_842" style="mask-type:luminance" maskUnits="userSpaceOnUse" x="0" y="0" width="176" height="135">
<path d="M176 0H0V135H176V0Z" fill="white"/>
</mask>
<g mask="url(#mask19_7_842)">
<path fill-rule="evenodd" clip-rule="evenodd" d="M98.6624 36.375L90.1418 97.0312L103.342 96.8203L111.862 36.1875L98.6624 36.375Z" fill="#DA1F26"/>
</g>
<mask id="mask20_7_842" style="mask-type:luminance" maskUnits="userSpaceOnUse" x="0" y="0" width="176" height="135">
<path d="M176 0H0V135H176V0Z" fill="white"/>
</mask>
<g mask="url(#mask20_7_842)">
<path fill-rule="evenodd" clip-rule="evenodd" d="M114.61 76.8984C114.633 64.875 124.061 55.289 138.169 54.7031C152.277 54.1172 160.728 61.0078 159.82 75.914C159.797 76.289 159.797 76.6641 159.774 77.0156L128.135 77.5078C128.135 77.5078 128.485 83.2969 131.744 85.5703C138.984 90.6094 156.887 82.9922 156.887 82.9922L154.419 93.8203C146.597 97.1484 143.501 97.3594 137.238 97.3125C122.921 97.2187 114.586 88.9219 114.61 76.8984ZM130.557 70.2187L145.992 69.9844C146.411 66.0469 143.477 62.9765 139.333 63.0469C135.189 63.0937 131.325 66.2812 130.557 70.2187Z" fill="#DA1F26"/>
</g>
<mask id="mask21_7_842" style="mask-type:luminance" maskUnits="userSpaceOnUse" x="0" y="0" width="176" height="135">
<path d="M176 0H0V135H176V0Z" fill="white"/>
</mask>
<g mask="url(#mask21_7_842)">
<path fill-rule="evenodd" clip-rule="evenodd" d="M150.717 47.4375C145.619 50.2031 141.545 51.1406 135.702 50.2734C134.584 50.1094 133.606 49.8281 132.815 49.4531C133.443 48.1875 135.026 45.3516 137.052 44.2031C139.636 42.7031 142.011 43.9453 144.851 42.8672C147.435 41.9062 150.811 39.3047 150.811 39.3047C150.811 39.3047 147.225 41.2969 144.688 42.0469C141.592 42.9609 139.263 41.7422 136.377 43.125C134.072 44.25 131.953 47.2031 131.162 48.3516C129.975 47.2031 129.509 45.6797 129.765 43.9453C131.278 33.3281 142.011 35.6953 149.949 33.6094C155.234 32.2266 161.403 26.4609 161.403 26.4609C161.403 26.4609 159.378 42.75 150.717 47.4375Z" fill="#4B9D45"/>
</g>
</g>
<defs>
<clipPath id="clip0_7_842">
<rect width="176" height="135" fill="white"/>
</clipPath>
</defs>
</svg>
