<svg width="25" height="25" viewBox="0 0 25 25" fill="none" xmlns="http://www.w3.org/2000/svg">
<path d="M15.1047 9.63541H2.08386C1.65678 9.63541 1.30261 9.28124 1.30261 8.85416C1.30261 8.42707 1.65678 8.07291 2.08386 8.07291H15.1047C15.5318 8.07291 15.886 8.42707 15.886 8.85416C15.886 9.28124 15.5318 9.63541 15.1047 9.63541Z" fill="#469835"/>
<path d="M8.33382 17.9688H6.25049C5.8234 17.9688 5.46924 17.6146 5.46924 17.1875C5.46924 16.7604 5.8234 16.4062 6.25049 16.4062H8.33382C8.76091 16.4062 9.11507 16.7604 9.11507 17.1875C9.11507 17.6146 8.76091 17.9688 8.33382 17.9688Z" fill="#469835"/>
<path d="M15.1047 17.9688H10.938C10.5109 17.9688 10.1567 17.6146 10.1567 17.1875C10.1567 16.7604 10.5109 16.4062 10.938 16.4062H15.1047C15.5317 16.4062 15.8859 16.7604 15.8859 17.1875C15.8859 17.6146 15.5317 17.9688 15.1047 17.9688Z" fill="#469835"/>
<path d="M18.2922 22.1354H6.70886C2.56303 22.1354 1.30261 20.8854 1.30261 16.7812V8.21875C1.30261 4.11458 2.56303 2.86458 6.70886 2.86458H15.1047C15.5318 2.86458 15.886 3.21874 15.886 3.64583C15.886 4.07291 15.5318 4.42708 15.1047 4.42708H6.70886C3.43803 4.42708 2.86511 4.98958 2.86511 8.21875V16.7708C2.86511 20 3.43803 20.5625 6.70886 20.5625H18.2818C21.5526 20.5625 22.1255 20 22.1255 16.7708V14.6042C22.1255 14.1771 22.4797 13.8229 22.9068 13.8229C23.3339 13.8229 23.688 14.1771 23.688 14.6042V16.7708C23.6985 20.8854 22.438 22.1354 18.2922 22.1354Z" fill="#469835"/>
<path d="M20.8339 10.6771C20.7297 10.6771 20.6359 10.6562 20.5318 10.6146C20.2401 10.4896 20.0526 10.2083 20.0526 9.89583V3.64583C20.0526 3.21874 20.4068 2.86458 20.8339 2.86458C21.2609 2.86458 21.6151 3.21874 21.6151 3.64583V8.01041L22.3651 7.26041C22.6672 6.95833 23.1672 6.95833 23.4693 7.26041C23.7714 7.56249 23.7714 8.06249 23.4693 8.36458L21.3859 10.4479C21.2401 10.5937 21.0422 10.6771 20.8339 10.6771Z" fill="#469835"/>
<path d="M20.8338 10.677C20.6359 10.677 20.4379 10.6041 20.2817 10.4478L18.1984 8.36451C17.8963 8.06243 17.8963 7.56243 18.1984 7.26035C18.5004 6.95826 19.0004 6.95826 19.3025 7.26035L21.3859 9.34368C21.6879 9.64576 21.6879 10.1458 21.3859 10.4478C21.2296 10.6041 21.0317 10.677 20.8338 10.677Z" fill="#469835"/>
</svg>
