<svg width="53" height="53" viewBox="0 0 53 53" fill="none" xmlns="http://www.w3.org/2000/svg">
<g clip-path="url(#clip0_7_820)">
<path d="M48.5833 28.7083V6.62499C48.5833 6.33215 48.467 6.0513 48.2599 5.84423C48.0529 5.63716 47.772 5.52083 47.4792 5.52083H16.5625C16.2697 5.52083 15.9888 5.63716 15.7817 5.84423C15.5747 6.0513 15.4583 6.33215 15.4583 6.62499V24.6671C13.7579 24.5567 13.3715 24.6671 8.83333 25.2523V24.2917C8.83333 23.9988 8.717 23.718 8.50993 23.5109C8.30286 23.3038 8.02201 23.1875 7.72917 23.1875H1.10417C0.811324 23.1875 0.530474 23.3038 0.323403 23.5109C0.116332 23.718 0 23.9988 0 24.2917L0 43.0625C0 43.3553 0.116332 43.6362 0.323403 43.8433C0.530474 44.0503 0.811324 44.1667 1.10417 44.1667H7.72917C8.02201 44.1667 8.30286 44.0503 8.50993 43.8433C8.717 43.6362 8.83333 43.3553 8.83333 43.0625V41.9583C12.7421 41.9583 10.6994 41.4173 21.6748 46.375C23.4369 47.175 25.3612 47.5531 27.295 47.4792C31.1596 47.4792 31.3252 46.905 50.604 37.0558C51.4867 36.6036 52.1915 35.8674 52.6049 34.9659C53.0183 34.0643 53.1162 33.0499 52.8828 32.0859C52.6495 31.1219 52.0985 30.2645 51.3186 29.6518C50.5386 29.0391 49.5751 28.7068 48.5833 28.7083ZM35.3333 7.72916V11.4612C31.3363 9.4627 32.6944 9.47374 28.7083 11.4612V7.72916H35.3333ZM17.6667 7.72916H26.5V13.25C26.5006 13.4382 26.5492 13.6232 26.6414 13.7873C26.7336 13.9514 26.8661 14.0892 27.0266 14.1877C27.187 14.2862 27.3699 14.342 27.558 14.3499C27.746 14.3577 27.933 14.3174 28.101 14.2327L32.0208 12.2783C36.1835 14.3542 36.316 14.6192 37.0227 14.1885C37.7294 13.7579 37.5417 13.6696 37.5417 7.72916H46.375V29.2935L34.2292 35.499C34.2486 34.9359 34.1624 34.3741 33.9752 33.8427C33.125 31.535 32.4846 31.7006 19.875 25.7602C19.1636 25.4425 18.4243 25.1912 17.6667 25.0094V7.72916ZM6.625 41.9583H2.20833V25.3958H6.625V41.9583ZM49.5992 35.0904C30.2763 44.9617 30.4308 45.2708 27.295 45.2708C25.6795 45.3501 24.068 45.0475 22.5913 44.3875C11.4171 39.3194 13.25 39.75 8.83333 39.75V27.4717C17.9096 26.3675 14.84 25.8485 30.751 33.3237C31.0153 33.448 31.2523 33.6233 31.4483 33.8397C31.6443 34.0561 31.7954 34.3093 31.893 34.5844C31.9905 34.8596 32.0326 35.1515 32.0166 35.443C32.0006 35.7345 31.927 36.02 31.8 36.2829C31.6807 36.5478 31.5103 36.7866 31.2986 36.9855C31.0868 37.1844 30.8379 37.3396 30.5661 37.4422C30.2943 37.5448 30.0049 37.5927 29.7145 37.5832C29.4242 37.5738 29.1385 37.5071 28.874 37.3871L20.1621 33.2354C19.9022 33.1333 19.6133 33.1335 19.3536 33.2359C19.0938 33.3383 18.8825 33.5352 18.7621 33.7871C18.6418 34.0391 18.6213 34.3272 18.7049 34.5936C18.7884 34.86 18.9698 35.0849 19.2125 35.2229L27.9244 39.3194C28.6125 39.6523 29.3765 39.797 30.1387 39.7388C30.9009 39.6806 31.6341 39.4216 32.2638 38.9881L47.5675 31.1596C47.8256 31.0262 48.1075 30.9449 48.397 30.9204C48.6865 30.896 48.978 30.9288 49.2548 31.0169C49.5316 31.1051 49.7884 31.247 50.0104 31.4344C50.2324 31.6218 50.4154 31.8511 50.5488 32.1092C50.6822 32.3673 50.7634 32.6491 50.7879 32.9386C50.8124 33.2281 50.7796 33.5196 50.6914 33.7965C50.6032 34.0733 50.4614 34.33 50.274 34.5521C50.0866 34.7741 49.8573 34.957 49.5992 35.0904Z" fill="#469835"/>
<path d="M38.6459 27.6042H43.0625C43.3554 27.6042 43.6362 27.4878 43.8433 27.2808C44.0504 27.0737 44.1667 26.7928 44.1667 26.5C44.1667 26.2072 44.0504 25.9263 43.8433 25.7192C43.6362 25.5122 43.3554 25.3958 43.0625 25.3958H38.6459C38.353 25.3958 38.0722 25.5122 37.8651 25.7192C37.658 25.9263 37.5417 26.2072 37.5417 26.5C37.5417 26.7928 37.658 27.0737 37.8651 27.2808C38.0722 27.4878 38.353 27.6042 38.6459 27.6042Z" fill="#469835"/>
</g>
<defs>
<clipPath id="clip0_7_820">
<rect width="53" height="53" fill="white"/>
</clipPath>
</defs>
</svg>
