<svg width="21" height="21" viewBox="0 0 21 21" fill="none" xmlns="http://www.w3.org/2000/svg">
<path d="M4.66636 9.68058L14.0116 0.335485C14.2278 0.11917 14.5163 0 14.824 0C15.1316 0 15.4202 0.11917 15.6363 0.335485L16.3245 1.02353C16.7723 1.47187 16.7723 2.20054 16.3245 2.6482L8.47706 10.4956L16.3332 18.3518C16.5494 18.5681 16.6687 18.8565 16.6687 19.164C16.6687 19.4718 16.5494 19.7602 16.3332 19.9766L15.645 20.6645C15.4287 20.8808 15.1403 21 14.8327 21C14.525 21 14.2365 20.8808 14.0203 20.6645L4.66636 11.3109C4.4497 11.0939 4.3307 10.8042 4.33139 10.4962C4.3307 10.187 4.4497 9.89741 4.66636 9.68058Z" fill="white"/>
</svg>
