<svg width="21" height="21" viewBox="0 0 21 21" fill="none" xmlns="http://www.w3.org/2000/svg">
<path d="M4.66631 9.68058L14.0116 0.335485C14.2277 0.11917 14.5163 0 14.8239 0C15.1316 0 15.4201 0.11917 15.6362 0.335485L16.3245 1.02353C16.7723 1.47187 16.7723 2.20054 16.3245 2.6482L8.47701 10.4956L16.3332 18.3518C16.5493 18.5681 16.6687 18.8565 16.6687 19.164C16.6687 19.4718 16.5493 19.7602 16.3332 19.9766L15.645 20.6645C15.4286 20.8808 15.1403 21 14.8326 21C14.525 21 14.2364 20.8808 14.0203 20.6645L4.66631 11.3109C4.44966 11.0939 4.33066 10.8042 4.33134 10.4962C4.33066 10.187 4.44966 9.89741 4.66631 9.68058Z" fill="white"/>
</svg>
