<svg width="23" height="23" viewBox="0 0 23 23" fill="none" xmlns="http://www.w3.org/2000/svg">
<g clip-path="url(#clip0_13_956)">
<path d="M16.3406 12.3953H13.2154C12.36 12.3953 11.6645 13.0908 11.6645 13.9462V16.343C11.6645 17.1983 12.36 17.8938 13.2154 17.8938H16.3406C17.196 17.8938 17.8915 17.1983 17.8915 16.343V13.9462C17.8915 13.0908 17.196 12.3953 16.3406 12.3953ZM16.7636 16.343C16.7636 16.578 16.5709 16.7659 16.3406 16.7659H13.2154C12.9804 16.7659 12.7924 16.5733 12.7924 16.343V13.9462C12.7924 13.7112 12.9851 13.5232 13.2154 13.5232H16.3406C16.5756 13.5232 16.7636 13.7159 16.7636 13.9462V16.343Z" fill="#469835"/>
<path d="M23 8.03872C23 7.94003 22.9765 7.84604 22.9248 7.76144L19.5035 1.74591C19.4048 1.57203 19.2168 1.45924 19.0147 1.45924H3.98059C3.7785 1.45924 3.59052 1.56733 3.49183 1.74591L0.0751941 7.76144C0.0281978 7.84604 0 7.94003 0 8.03872C0 9.38752 0.813036 10.5436 1.97385 11.0559V20.9768C1.97385 21.287 2.22763 21.5408 2.5378 21.5408H5.65366C5.65836 21.5408 5.66306 21.5408 5.66776 21.5408H10.0384C10.0431 21.5408 10.0478 21.5408 10.0525 21.5408H20.4575C20.7677 21.5408 21.0215 21.287 21.0215 20.9768V11.1264C21.0215 11.1029 21.0215 11.0841 21.0168 11.0653C22.1823 10.553 23 9.39222 23 8.03872ZM4.30956 2.59185H18.6857L21.3598 7.29618H1.64017L4.30956 2.59185ZM16.3688 8.41939C16.1902 9.43451 15.302 10.2053 14.2352 10.2053C13.1684 10.2053 12.2801 9.43451 12.1016 8.41939H16.3688ZM10.9031 8.41939C10.7246 9.43451 9.83633 10.2053 8.76951 10.2053C7.7027 10.2053 6.81447 9.43451 6.63118 8.41939H10.9031ZM1.16551 8.41939H5.43747C5.25889 9.43451 4.36596 10.2053 3.29914 10.2053C2.23233 10.21 1.34409 9.43451 1.16551 8.41939ZM9.47446 20.4129H6.23171V14.3268C6.23171 13.8851 6.58888 13.5232 7.03535 13.5232H8.67552C9.11729 13.5232 9.47916 13.8804 9.47916 14.3268V20.4129H9.47446ZM19.8935 20.4129H10.6024V14.3268C10.6024 13.2647 9.73764 12.3953 8.67082 12.3953H7.03065C5.96853 12.3953 5.0991 13.26 5.0991 14.3268V20.4176H3.10176V11.3332C3.16755 11.3379 3.23335 11.3379 3.29914 11.3379C4.43645 11.3379 5.44217 10.7598 6.03433 9.88098C6.62648 10.7598 7.6322 11.3379 8.76951 11.3379C9.90683 11.3379 10.9078 10.7598 11.5047 9.88098C12.0969 10.7598 13.1026 11.3379 14.2352 11.3379C15.3725 11.3379 16.3735 10.7598 16.9657 9.88098C17.5578 10.7598 18.5635 11.3379 19.7009 11.3379C19.7667 11.3379 19.8277 11.3332 19.8935 11.3332V20.4129ZM19.7009 10.21C18.634 10.21 17.7458 9.43921 17.5672 8.42409H21.8392C21.6559 9.43451 20.7677 10.21 19.7009 10.21Z" fill="#469835"/>
</g>
<defs>
<clipPath id="clip0_13_956">
<rect width="23" height="23" fill="white"/>
</clipPath>
</defs>
</svg>
