<svg width="49" height="49" viewBox="0 0 49 49" fill="none" xmlns="http://www.w3.org/2000/svg">
<g clip-path="url(#clip0_8_90)">
<path d="M47.9792 30.625C47.4157 30.625 46.9583 30.1677 46.9583 29.6042C46.9583 23.4118 41.9215 18.375 35.7292 18.375H19.3958V25.5208C19.3958 25.9332 19.1467 26.3069 18.7649 26.4641C18.3852 26.6274 17.9462 26.5376 17.6522 26.2436L6.42307 15.0144C6.02495 14.6163 6.02495 13.9691 6.42307 13.571L17.6522 2.34179C17.9462 2.04779 18.3832 1.95796 18.7649 2.11925C19.1467 2.27646 19.3958 2.65008 19.3958 3.0625V10.2083H33.6875C42.1318 10.2083 49 17.0765 49 25.5208V29.6042C49 30.1677 48.5427 30.625 47.9792 30.625ZM8.58928 14.2917L17.3542 23.0565V17.3542C17.3542 16.7907 17.8115 16.3333 18.375 16.3333H35.7292C40.1024 16.3333 43.9877 18.4608 46.4071 21.7335C44.7737 16.2558 39.688 12.25 33.6875 12.25H18.375C17.8115 12.25 17.3542 11.7927 17.3542 11.2292V5.52679L8.58928 14.2917Z" fill="#469835"/>
<path d="M30.625 46.9583C30.4943 46.9583 30.3616 46.9338 30.235 46.8808C29.8533 46.7235 29.6042 46.3499 29.6042 45.9375V38.7917H15.3125C6.86817 38.7917 0 31.9235 0 23.4792V19.3958C0 18.8323 0.457333 18.375 1.02083 18.375C1.58433 18.375 2.04167 18.8323 2.04167 19.3958C2.04167 25.5882 7.07846 30.625 13.2708 30.625H29.6042V23.4792C29.6042 23.0668 29.8533 22.6931 30.235 22.5359C30.6189 22.3787 31.0558 22.4645 31.3478 22.7564L42.5769 33.9856C42.975 34.3837 42.975 35.0309 42.5769 35.429L31.3478 46.6582C31.1518 46.8542 30.8904 46.9583 30.625 46.9583ZM2.59292 27.2665C4.22625 32.7442 9.31204 36.75 15.3125 36.75H30.625C31.1885 36.75 31.6458 37.2073 31.6458 37.7708V43.4732L40.4107 34.7083L31.6458 25.9435V31.6458C31.6458 32.2093 31.1885 32.6667 30.625 32.6667H13.2708C8.89758 32.6667 5.01229 30.5392 2.59292 27.2665Z" fill="#469835"/>
</g>
<defs>
<clipPath id="clip0_8_90">
<rect width="49" height="49" fill="white"/>
</clipPath>
</defs>
</svg>
