<svg width="54" height="54" viewBox="0 0 54 54" fill="none" xmlns="http://www.w3.org/2000/svg">
<g clip-path="url(#clip0_8_93)">
<path d="M53.5555 15.4241L27.4554 0.124104C27.1809 -0.0361027 26.8434 -0.0414816 26.5654 0.112397L0.465328 14.5125C0.178242 14.6699 0 14.9723 0 15.2999V53.0999C0 53.5976 0.403207 53.9999 0.899965 53.9999H5.4C5.89676 53.9999 6.29996 53.5976 6.29996 53.0999V21.6H47.6999V53.1C47.6999 53.5977 48.1022 54 48.5999 54H53.0999C53.5976 54 53.9999 53.5977 53.9999 53.1V16.2C54 15.8804 53.8308 15.5852 53.5555 15.4241ZM52.2 52.1999H49.5V20.6999C49.5 20.2031 49.0977 19.7999 48.6 19.7999H5.4C4.90324 19.7999 4.50004 20.2031 4.50004 20.6999V52.1999H1.80004V15.8309L26.9865 1.9349L52.2 16.7156V52.1999Z" fill="#469835"/>
<path d="M45 41.3997H34.2C33.7023 41.3997 33.3001 41.802 33.3001 42.2997V53.0997C33.3001 53.5974 33.7023 53.9997 34.2 53.9997H45C45.4977 53.9997 45.9 53.5974 45.9 53.0997V42.2997C45.9 41.802 45.4977 41.3997 45 41.3997ZM44.1 52.1997H35.1V43.1998H44.1V52.1997Z" fill="#469835"/>
<path d="M40.5 42.2997V44.9997H38.7V42.2997H36.8999V45.8997C36.8999 46.3974 37.3022 46.7996 37.7999 46.7996H41.3999C41.8976 46.7996 42.2998 46.3974 42.2998 45.8997V42.2997H40.5Z" fill="#469835"/>
<path d="M34.2 41.3997H23.4C22.9033 41.3997 22.5001 41.802 22.5001 42.2997V53.0997C22.5001 53.5974 22.9033 53.9997 23.4 53.9997H34.2C34.6977 53.9997 35.1 53.5974 35.1 53.0997V42.2997C35.1 41.802 34.6977 41.3997 34.2 41.3997ZM33.3 52.1997H24.3V43.1998H33.3V52.1997Z" fill="#469835"/>
<path d="M29.7 42.2997V44.9997H27.9V42.2997H26.0999V45.8997C26.0999 46.3974 26.5031 46.7996 26.9999 46.7996H30.5999C31.0976 46.7996 31.4998 46.3974 31.4998 45.8997V42.2997H29.7Z" fill="#469835"/>
<path d="M45 30.5998H34.2C33.7023 30.5998 33.3001 31.002 33.3001 31.4997V42.2997C33.3001 42.7974 33.7023 43.1997 34.2 43.1997H45C45.4977 43.1997 45.9 42.7974 45.9 42.2997V31.4997C45.9 31.002 45.4977 30.5998 45 30.5998ZM44.1 41.3998H35.1V32.3998H44.1V41.3998Z" fill="#469835"/>
<path d="M40.5 31.4997V34.1997H38.7V31.4997H36.8999V35.0997C36.8999 35.5974 37.3022 35.9997 37.7999 35.9997H41.3999C41.8976 35.9997 42.2998 35.5974 42.2998 35.0997V31.4997H40.5Z" fill="#469835"/>
<path d="M48.6 26.9998H5.39999V28.7998H48.6V26.9998Z" fill="#469835"/>
<path d="M48.6 23.3997H5.39999V25.1998H48.6V23.3997Z" fill="#469835"/>
<path d="M31.5 12.5997H22.5001C22.0033 12.5997 21.6001 13.0029 21.6001 13.4997V17.0996C21.6001 17.5964 22.0033 17.9996 22.5001 17.9996H31.5C31.9977 17.9996 32.4 17.5964 32.4 17.0996V13.4997C32.4 13.0029 31.9977 12.5997 31.5 12.5997ZM30.6 16.1998H23.3999V14.3998H30.6V16.1998Z" fill="#469835"/>
</g>
<defs>
<clipPath id="clip0_8_93">
<rect width="54" height="54" fill="white"/>
</clipPath>
</defs>
</svg>
