<svg width="80" height="80" viewBox="0 0 80 80" fill="none" xmlns="http://www.w3.org/2000/svg">
<g clip-path="url(#clip0_13_445)">
<mask id="mask0_13_445" style="mask-type:luminance" maskUnits="userSpaceOnUse" x="0" y="0" width="80" height="80">
<path d="M0 7.62939e-06H80V80H0V7.62939e-06Z" fill="white"/>
</mask>
<g mask="url(#mask0_13_445)">
<path d="M79.9844 40.0125C79.9844 50.6545 75.8531 60.6703 68.3516 68.2156C60.8545 75.7547 50.8748 79.9439 40.2469 80.011C40.2203 80.011 40.1922 80.0125 40.1656 80.011C40.1061 80.0125 40.0453 80.0125 39.9844 80.0125C29.3016 80.0125 19.2563 75.8531 11.7014 68.2969C4.14531 60.7422 -0.015625 50.6969 -0.015625 40.0125C-0.015625 29.3281 4.14531 19.2844 11.7014 11.7281C19.2563 4.17345 29.3016 0.0125198 39.9844 0.0125198C40.0453 0.0125198 40.1047 0.0125198 40.1656 0.0140762C40.1937 0.0140762 40.2219 0.0140839 40.2498 0.0156403C50.8764 0.0843964 60.8562 4.27189 68.3516 11.811C75.8531 19.3563 79.9844 29.3719 79.9844 40.0125Z" fill="#F3B235"/>
<path d="M79.9843 40.0125C79.9843 50.6545 75.853 60.6703 68.3515 68.2156C60.8544 75.7547 50.8747 79.9439 40.2468 80.0109C40.2202 80.0109 40.1921 80.0125 40.1655 80.0109V0.0140762C40.1937 0.0140762 40.2218 0.0140762 40.2497 0.0156403C50.8763 0.0843887 60.8562 4.27189 68.3515 11.811C75.853 19.3563 79.9843 29.3719 79.9843 40.0125Z" fill="#DD9E23"/>
<path d="M40.1825 16.857C40.125 16.857 40.2486 16.8554 40.1825 16.857V16.857Z" fill="black"/>
<path d="M46.8469 23.5219V41.4031C46.8469 45.0781 43.8577 48.0689 40.1829 48.0689H40.1657C38.4485 48.0188 36.6766 47.325 35.4688 46.1172C34.211 44.8578 33.5171 43.1844 33.5171 41.4031V23.5219C33.5171 19.8875 36.5344 16.9609 40.1657 16.8563H40.1829C43.8577 16.8563 46.8469 19.8467 46.8469 23.5219Z" fill="white"/>
<path d="M40.1826 48.0688C40.1252 48.0688 40.24 48.0703 40.1826 48.0688V48.0688Z" fill="black"/>
<path d="M46.4905 56.5187C46.4905 59.9985 43.6608 62.8281 40.1811 62.8281H40.1656C36.6952 62.8203 33.8733 59.9937 33.8733 56.5187C33.8733 53.0454 36.6952 50.2189 40.1656 50.2109H40.1811C43.6608 50.2109 46.4905 53.0406 46.4905 56.5187Z" fill="white"/>
<path d="M46.4906 56.5187C46.4906 59.9985 43.6609 62.8281 40.1812 62.8281H40.1658V50.2109H40.1812C43.6609 50.2109 46.4906 53.0406 46.4906 56.5187Z" fill="#DDEBF0"/>
<path d="M46.8468 23.5219V41.4031C46.8468 45.0781 43.8576 48.0689 40.1827 48.0689H40.1655V16.8563H40.1827C43.8576 16.8563 46.8468 19.8467 46.8468 23.5219Z" fill="#DDEBF0"/>
</g>
</g>
<defs>
<clipPath id="clip0_13_445">
<rect width="80" height="80" fill="white"/>
</clipPath>
</defs>
</svg>
